<svg xmlns="http://www.w3.org/2000/svg" xmlns:xlink="http://www.w3.org/1999/xlink"><symbol viewBox="0 0 18 17" id="icons--arrow-extern" xmlns="http://www.w3.org/2000/svg"><path d="M15.115 4.069 2.364 16.819.95 15.407 13.7 2.654H5.782L5.8.657h11.314V11.97l-1.998.017v-7.92Z"/></symbol><symbol viewBox="0 0 36 16" fill="none" id="icons--arrow-left" xmlns="http://www.w3.org/2000/svg"><path d="M3.825 7H36v2H3.825l5.6 5.6L8 16 0 8l8-8 1.425 1.4-5.6 5.6Z"/></symbol><symbol viewBox="0 0 36 16" id="icons--arrow-right" xmlns="http://www.w3.org/2000/svg"><path d="M32.175 9H0V7h32.175l-5.6-5.6L28 0l8 8-8 8-1.425-1.4 5.6-5.6Z"/></symbol><symbol fill="none" viewBox="0 0 312 191" id="icons--logo-primary" xmlns="http://www.w3.org/2000/svg"><path d="M0 188.641a2 2 0 0 0 2.743 1.857l151.701-60.661 85.436-34.163 70.863-28.336A2 2 0 0 0 312 65.481V2.968a2 2 0 0 0-2.751-1.854L157.973 62.38 72.791 95.652.732 123.688A1.15 1.15 0 0 0 0 124.759v63.882Z" fill="#E5AC01"/></symbol><symbol fill="none" viewBox="0 0 312 191" id="icons--logo-secondary" xmlns="http://www.w3.org/2000/svg"><path d="M0 188.641a2 2 0 0 0 2.743 1.857l151.701-60.661 85.436-34.163 70.863-28.336A2 2 0 0 0 312 65.481V2.968a2 2 0 0 0-2.751-1.854L157.973 62.38 72.791 95.652.732 123.688A1.15 1.15 0 0 0 0 124.759v63.882Z" fill="#202020"/></symbol></svg>