<?xml version="1.0" standalone="no"?>
<!DOCTYPE svg PUBLIC "-//W3C//DTD SVG 20010904//EN"
 "http://www.w3.org/TR/2001/REC-SVG-20010904/DTD/svg10.dtd">
<svg version="1.0" xmlns="http://www.w3.org/2000/svg"
 width="500.000000pt" height="500.000000pt" viewBox="0 0 500.000000 500.000000"
 preserveAspectRatio="xMidYMid meet">
<metadata>
Created by potrace 1.14, written by Peter Selinger 2001-2017
</metadata>
<g transform="translate(0.000000,500.000000) scale(0.100000,-0.100000)"
fill="#000000" stroke="none">
<path d="M550 4984 c-36 -8 -108 -35 -160 -60 -79 -39 -110 -61 -181 -133 -71
-71 -94 -102 -133 -181 -82 -168 -77 -6 -74 -2137 3 -1788 4 -1901 21 -1957
70 -233 231 -402 462 -483 l80 -28 1925 0 c1809 0 1929 1 1989 18 232 64 406
229 488 462 l28 80 3 1890 c3 1423 0 1907 -9 1960 -37 221 -178 409 -381 509
-164 81 -7 76 -2113 75 -1564 -1 -1891 -3 -1945 -15z m3368 -1916 l2 -296
-1417 -565 c-779 -311 -1420 -564 -1425 -561 -4 3 -8 139 -8 302 l0 297 243
94 c711 275 1399 548 1957 775 344 140 630 253 635 252 6 -2 11 -112 13 -298z"/>
</g>
</svg>
